<svg width="1990" height="335" viewBox="0 0 1990 335" fill="none" xmlns="http://www.w3.org/2000/svg">
<g clip-path="url(#clip0_77_41)">
<g filter="url(#filter0_f_77_41)">
<path d="M1990 109.233H1974.5C1972.29 109.233 1970.5 111.023 1970.5 113.233V133.323C1970.5 135.532 1968.71 137.323 1966.5 137.323H1922.5C1920.29 137.323 1918.5 139.114 1918.5 141.323V176.5C1918.5 178.709 1916.71 180.5 1914.5 180.5H1900C1897.79 180.5 1896 178.709 1896 176.5V114.5V99.776C1896 99.1676 1895.86 98.5672 1895.59 98.0206L1880.1 66.2882C1879.43 64.9147 1878.03 64.0436 1876.5 64.0436H1851.5C1849.29 64.0436 1847.5 65.8345 1847.5 68.0436V84.1648C1847.5 86.3739 1845.71 88.1648 1843.5 88.1648H1823C1820.79 88.1648 1819 89.9556 1819 92.1648V94.8514C1819 97.0605 1817.21 98.8514 1815 98.8514H1800.5C1798.29 98.8514 1796.5 97.0605 1796.5 94.8514V72.14C1796.5 71.0891 1796.09 70.0804 1795.35 69.332L1780.17 53.9384C1779.42 53.1757 1778.4 52.7464 1777.33 52.7464H1728.64C1727.59 52.7464 1726.58 53.1581 1725.83 53.8929L1716.67 62.8971C1715.92 63.6319 1714.91 64.0436 1713.86 64.0436H1694C1691.79 64.0436 1690 65.8345 1690 68.0436V94.8514C1690 97.0605 1688.21 98.8514 1686 98.8514H1645.5C1643.29 98.8514 1641.5 100.642 1641.5 102.851V193.168C1641.5 195.377 1639.71 197.168 1637.5 197.168H1622.5C1620.29 197.168 1618.5 195.377 1618.5 193.168V46.9758C1618.5 44.7666 1616.71 42.9758 1614.5 42.9758H1601.5C1599.29 42.9758 1597.5 44.7666 1597.5 46.9758V48.7464C1597.5 50.9555 1595.71 52.7464 1593.5 52.7464H1582.5C1580.29 52.7464 1578.5 50.9555 1578.5 48.7464V34.1519C1578.5 31.9427 1576.71 30.1519 1574.5 30.1519H1568C1565.79 30.1519 1564 31.9427 1564 34.1519V84.1648C1564 86.3739 1562.21 88.1648 1560 88.1648H1543.5C1541.29 88.1648 1539.5 89.9556 1539.5 92.1648V122.331C1539.5 124.54 1537.71 126.331 1535.5 126.331H1507C1504.79 126.331 1503 128.122 1503 130.331V193.168C1503 195.377 1501.21 197.168 1499 197.168H1492C1489.79 197.168 1488 195.377 1488 193.168V85.4728C1488 83.9918 1487.18 82.632 1485.87 81.9385L1476.13 76.7734C1474.82 76.0799 1474 74.7201 1474 73.239V71.0969C1474 68.8878 1472.21 67.0969 1470 67.0969H1453.13C1452.71 67.0969 1452.3 67.1621 1451.9 67.2901L1428.77 74.752C1427.12 75.285 1426 76.8228 1426 78.5588V122.331C1426 124.54 1424.21 126.331 1422 126.331H1415H1408C1405.79 126.331 1404 124.54 1404 122.331V79.6462C1404 77.4371 1402.21 75.6462 1400 75.6462H1395.62C1394.89 75.6462 1394.17 75.4434 1393.54 75.06L1387.96 71.6524C1387.33 71.2691 1386.61 71.0662 1385.88 71.0662H1372.5C1370.29 71.0662 1368.5 69.2754 1368.5 67.0662V55.525C1368.5 53.3159 1366.71 51.525 1364.5 51.525H1295C1292.79 51.525 1291 53.3159 1291 55.525V138.5C1291 140.709 1289.21 142.5 1287 142.5H1277.5C1275.29 142.5 1273.5 140.709 1273.5 138.5V75.0662C1273.5 72.8571 1271.71 71.0662 1269.5 71.0662H1266.5C1264.29 71.0662 1262.5 69.2754 1262.5 67.0662V62.2116V51.525V43.5415C1262.5 41.3621 1260.76 39.5838 1258.58 39.5422L1250.42 39.3867C1248.24 39.3451 1246.5 37.5668 1246.5 35.3874V23.7706C1246.5 21.5615 1244.71 19.7706 1242.5 19.7706H1181C1178.79 19.7706 1177 21.5615 1177 23.7706V45.9984C1177 48.2075 1175.21 49.9984 1173 49.9984H1166.5C1164.29 49.9984 1162.5 51.7892 1162.5 53.9984V78.3635C1162.5 80.5726 1160.71 82.3635 1158.5 82.3635H1149C1146.79 82.3635 1145 80.5726 1145 78.3635V51.2504C1145 49.0413 1143.21 47.2504 1141 47.2504H1105.47C1103.28 47.2504 1101.5 45.4733 1101.5 43.2811V43.2811C1101.5 41.0889 1099.72 39.3118 1097.53 39.3118H1084.97C1082.78 39.3118 1081 41.0889 1081 43.2811V43.2811C1081 45.4733 1079.22 47.2504 1077.03 47.2504H1063.5C1061.29 47.2504 1059.5 49.0413 1059.5 51.2504V92.7141C1059.5 94.9232 1057.71 96.7141 1055.5 96.7141H1044.5C1042.29 96.7141 1040.5 94.9232 1040.5 92.714V36.2892C1040.5 34.08 1038.71 32.2892 1036.5 32.2892H1023C1020.79 32.2892 1019 34.08 1019 36.2892V47.525C1019 49.7342 1017.21 51.525 1015 51.525H994.597C993.572 51.525 992.586 51.1313 991.842 50.4252L971.658 31.2517C970.914 30.5456 969.928 30.1519 968.903 30.1519H958.511C956.302 30.1519 954.511 31.9427 954.511 34.1519V58.2116C954.511 60.4208 952.721 62.2116 950.511 62.2116H938.011C935.802 62.2116 934.011 60.4208 934.011 58.2116V51.2504C934.011 49.0413 932.221 47.2504 930.011 47.2504H905.464C904.831 47.2504 904.206 47.401 903.642 47.6898L885.677 56.8854C884.341 57.5696 883.5 58.9446 883.5 60.4461V101C883.5 103.209 881.709 105 879.5 105H862.5C860.291 105 858.5 103.209 858.5 101V99.4927C858.5 97.2836 856.709 95.4927 854.5 95.4927H839.5C837.291 95.4927 835.5 97.2836 835.5 99.4927V157C835.5 159.209 833.709 161 831.5 161H825.5C823.291 161 821.5 159.209 821.5 157V113.538C821.5 111.329 819.709 109.538 817.5 109.538H797.5C795.291 109.538 793.5 111.329 793.5 113.538V133.323C793.5 135.532 791.709 137.323 789.5 137.323H755C752.791 137.323 751 135.532 751 133.323V34.1519C751 31.9427 749.209 30.1519 747 30.1519H670.5H594C591.791 30.1519 590 31.9427 590 34.1519V44.5029C590 46.1581 588.98 47.6424 587.436 48.2364L565.564 56.6456C564.02 57.2397 563 58.7239 563 60.3792V92.5614C563 94.7705 561.209 96.5614 559 96.5614H544.5C542.291 96.5614 540.5 98.3523 540.5 100.561V105.538C540.5 107.747 538.709 109.538 536.5 109.538H519.75C517.541 109.538 515.75 107.747 515.75 105.538V98.5767C515.75 96.3676 513.959 94.5767 511.75 94.5767H472.5C470.291 94.5767 468.5 92.7859 468.5 90.5767V68.0436C468.5 65.8345 466.709 64.0436 464.5 64.0436H413.5C411.291 64.0436 409.5 65.8345 409.5 68.0436V92.5614C409.5 94.7705 407.709 96.5614 405.5 96.5614H396.5C394.291 96.5614 392.5 94.7705 392.5 92.5614V47.8918C392.5 45.6826 390.709 43.8918 388.5 43.8918H343.882C343.301 43.8918 342.727 43.7653 342.2 43.5212L330.819 38.2486C329.405 37.5936 328.5 36.1773 328.5 34.6191V32.3199C328.5 30.1107 326.709 28.3199 324.5 28.3199H276C273.791 28.3199 272 26.529 272 24.3199V14C272 11.7909 270.209 10 268 10H224.5C222.291 10 220.5 11.7909 220.5 14V94.8514C220.5 97.0605 218.709 98.8514 216.5 98.8514H202.5C200.291 98.8514 198.5 97.0605 198.5 94.8514V86.3635C198.5 84.1543 196.709 82.3635 194.5 82.3635H138C135.791 82.3635 134 84.1544 134 86.3635V115.5C134 117.709 132.209 119.5 130 119.5H76C73.7909 119.5 72 117.709 72 115.5V109C72 106.791 70.2091 105 68 105H43.5C41.2909 105 39.5 106.791 39.5 109V115.5C39.5 117.709 37.7091 119.5 35.5 119.5H17.7752C16.6449 119.5 15.5673 119.022 14.809 118.184L7.69098 110.316C6.93266 109.478 5.85513 109 4.72484 109H0" stroke="#A395BA" stroke-linecap="square"/>
</g>
<g filter="url(#filter1_f_77_41)">
<path d="M1904.5 225.5H1904C1901.79 225.5 1900 227.291 1900 229.5V256C1900 258.209 1901.79 260 1904 260H1904.5C1906.71 260 1908.5 258.209 1908.5 256V242.75V229.5C1908.5 227.291 1906.71 225.5 1904.5 225.5Z" fill="#E5315C" stroke="#2A2237" stroke-width="2" stroke-linecap="square"/>
<path d="M1686 236.5H1726C1728.21 236.5 1730 238.291 1730 240.5V244.5C1730 246.709 1728.21 248.5 1726 248.5H1686" stroke="#E5315C" stroke-width="2" stroke-linecap="square"/>
<path d="M1686 218H1717C1719.21 218 1721 219.791 1721 222V223C1721 225.209 1719.21 227 1717 227H1686" stroke="#A395BA" stroke-width="2" stroke-linecap="square"/>
<path d="M1756.5 105H1755C1752.79 105 1751 106.791 1751 109V169.5C1751 171.709 1752.79 173.5 1755 173.5H1756.5C1758.71 173.5 1760.5 171.709 1760.5 169.5V109C1760.5 106.791 1758.71 105 1756.5 105Z" stroke="#2A2237" stroke-width="2" stroke-linecap="square"/>
<path d="M1720 164.5H1700C1697.79 164.5 1696 166.291 1696 168.5V169.5C1696 171.709 1697.79 173.5 1700 173.5H1716.5H1729C1731.21 173.5 1733 171.709 1733 169.5V109C1733 106.791 1731.21 105 1729 105H1728C1725.79 105 1724 106.791 1724 109V134.5V160.5C1724 162.709 1722.21 164.5 1720 164.5Z" fill="#E5315C" stroke="#2A2237" stroke-width="2" stroke-linecap="square"/>
<path d="M1549.5 254V224C1549.5 221.791 1551.29 220 1553.5 220H1570.5C1572.71 220 1574.5 221.791 1574.5 224V254C1574.5 256.209 1572.71 258 1570.5 258H1553.5C1551.29 258 1549.5 256.209 1549.5 254Z" fill="#E5315C" stroke="#A395BA" stroke-width="2" stroke-linecap="square"/>
<path d="M1628.5 239H1607.5C1605.57 239 1604 240.567 1604 242.5C1604 244.433 1605.57 246 1607.5 246H1628.5C1630.43 246 1632 244.433 1632 242.5C1632 240.567 1630.43 239 1628.5 239Z" stroke="#A395BA" stroke-width="2" stroke-linecap="square"/>
<path d="M1551 207.5V180.5C1551 178.567 1549.43 177 1547.5 177C1545.57 177 1544 178.567 1544 180.5V207.5C1544 209.433 1545.57 211 1547.5 211C1549.43 211 1551 209.433 1551 207.5Z" stroke="#A395BA" stroke-width="2" stroke-linecap="square"/>
<path d="M1532 261V181C1532 178.791 1530.21 177 1528 177C1525.79 177 1524 178.791 1524 181V261C1524 263.209 1525.79 265 1528 265C1530.21 265 1532 263.209 1532 261Z" fill="#A395BA" stroke="#A395BA" stroke-width="2" stroke-linecap="square"/>
<path d="M1410.5 253.25V194.25C1410.5 192.455 1409.04 191 1407.25 191C1405.46 191 1404 192.455 1404 194.25V253.25C1404 255.045 1405.46 256.5 1407.25 256.5C1409.04 256.5 1410.5 255.045 1410.5 253.25Z" fill="#E5315C" stroke="#A395BA" stroke-width="2" stroke-linecap="square"/>
<path d="M1267 225H1292C1293.1 225 1294 225.895 1294 227V227C1294 228.105 1293.1 229 1292 229H1267" stroke="#2A2237" stroke-width="2" stroke-linecap="square"/>
<path d="M1269.5 184H1252.5C1250.29 184 1248.5 185.791 1248.5 188V196.5C1248.5 198.709 1250.29 200.5 1252.5 200.5H1269.5C1271.71 200.5 1273.5 198.709 1273.5 196.5V188C1273.5 185.791 1271.71 184 1269.5 184Z" fill="#E5315C" stroke="#2A2237" stroke-width="2" stroke-linecap="square"/>
<path d="M1239.5 242H1227.5C1225.84 242 1224.5 243.343 1224.5 245C1224.5 246.657 1225.84 248 1227.5 248H1239.5C1241.16 248 1242.5 246.657 1242.5 245C1242.5 243.343 1241.16 242 1239.5 242Z" stroke="#A395BA" stroke-width="2" stroke-linecap="square"/>
<path d="M840 213H830C827.791 213 826 214.791 826 217V254C826 256.209 827.791 258 830 258H840C842.209 258 844 256.209 844 254V217C844 214.791 842.209 213 840 213Z" fill="#E5315C" stroke="#A395BA" stroke-width="2" stroke-linecap="square"/>
<path d="M805.75 246H744.75C742.541 246 740.75 247.791 740.75 250V254C740.75 256.209 742.541 258 744.75 258H805.75C807.959 258 809.75 256.209 809.75 254V250C809.75 247.791 807.959 246 805.75 246Z" fill="#A395BA" stroke="#A395BA" stroke-width="2" stroke-linecap="square"/>
<path d="M214.5 212H198C195.791 212 194 213.791 194 216V254.5C194 256.709 195.791 258.5 198 258.5H214.5C216.709 258.5 218.5 256.709 218.5 254.5V216C218.5 213.791 216.709 212 214.5 212Z" fill="#A395BA" stroke="#A395BA" stroke-width="2" stroke-linecap="square"/>
<path d="M613.5 187H632C633.105 187 634 187.895 634 189V189C634 190.105 633.105 191 632 191H613.5" stroke="#A395BA" stroke-width="2" stroke-linecap="square"/>
<path d="M613.5 196.5H636.5C637.605 196.5 638.5 197.395 638.5 198.5V198.5C638.5 199.605 637.605 200.5 636.5 200.5H613.5" stroke="#A395BA" stroke-width="2" stroke-linecap="square"/>
<path d="M614 206H642C643.105 206 644 206.895 644 208V208C644 209.105 643.105 210 642 210H614" stroke="#A395BA" stroke-width="2" stroke-linecap="square"/>
<path d="M611 240H607.5C605.291 240 603.5 241.791 603.5 244V263C603.5 265.209 605.291 267 607.5 267L611 267C613.209 267 615 265.209 615 263V244C615 241.791 613.209 240 611 240Z" fill="#E5315C" stroke="#A395BA" stroke-width="2" stroke-linecap="square"/>
<path d="M370.25 231H439.75C441.821 231 443.5 232.679 443.5 234.75C443.5 236.821 441.821 238.5 439.75 238.5H370.25C368.179 238.5 366.5 236.821 366.5 234.75C366.5 232.679 368.179 231 370.25 231Z" fill="#E5315C" stroke="#A395BA" stroke-width="2" stroke-linecap="square"/>
<path d="M245 156.5H304.5C306.709 156.5 308.5 158.291 308.5 160.5V164C308.5 166.209 306.709 168 304.5 168H245" stroke="#E5315C" stroke-width="2" stroke-linecap="square"/>
<path d="M872.5 167H932C934.209 167 936 168.791 936 171V174.5C936 176.709 934.209 178.5 932 178.5H872.5" stroke="#A395BA" stroke-width="2" stroke-linecap="square"/>
<path d="M873 193H932.5C934.709 193 936.5 194.791 936.5 197V200.5C936.5 202.709 934.709 204.5 932.5 204.5H873" stroke="#E5315C" stroke-width="2" stroke-linecap="square"/>
<path d="M873 219H932.5C934.709 219 936.5 220.791 936.5 223V226.5C936.5 228.709 934.709 230.5 932.5 230.5H873" stroke="#2A2237" stroke-width="2" stroke-linecap="square"/>
<path d="M337.5 187.5H287C284.791 187.5 283 185.709 283 183.5V181.5C283 179.291 284.791 177.5 287 177.5H337.5" stroke="#A395BA" stroke-width="2" stroke-linecap="square"/>
<path d="M245 197H304.5C306.709 197 308.5 198.791 308.5 201V204.5C308.5 206.709 306.709 208.5 304.5 208.5H245" stroke="#A395BA" stroke-width="2" stroke-linecap="square"/>
<path d="M337.5 228H287C284.791 228 283 226.209 283 224V222C283 219.791 284.791 218 287 218H337.5" stroke="#A395BA" stroke-width="2" stroke-linecap="square"/>
<path d="M122.5 209H97C94.7909 209 93 210.791 93 213V215.5C93 217.709 94.7909 219.5 97 219.5H122.5C124.709 219.5 126.5 217.709 126.5 215.5V213C126.5 210.791 124.709 209 122.5 209Z" stroke="#A395BA" stroke-width="2" stroke-linecap="square"/>
<path d="M131 234H97C94.7909 234 93 235.791 93 238V241C93 243.209 94.7909 245 97 245H131C133.209 245 135 243.209 135 241V238C135 235.791 133.209 234 131 234Z" stroke="#A395BA" stroke-width="2" stroke-linecap="square"/>
<path d="M168 194H97C94.7909 194 93 192.209 93 190V187C93 184.791 94.7909 183 97 183H168C170.209 183 172 184.791 172 187V190C172 192.209 170.209 194 168 194Z" fill="#E5315C" stroke="#A395BA" stroke-width="2" stroke-linecap="square"/>
<path d="M157.5 268.5V206C157.5 203.791 159.291 202 161.5 202H185M453.5 268.5V225.5C453.5 223.291 451.709 221.5 449.5 221.5H439.625M439.625 221.5H425.75H402C399.791 221.5 398 219.709 398 217.5V172C398 169.791 396.209 168 394 168H357C354.791 168 353 169.791 353 172V264.5C353 266.709 351.209 268.5 349 268.5H341.5C339.291 268.5 337.5 266.709 337.5 264.5V130C337.5 127.791 335.709 126 333.5 126H295.5C293.291 126 291.5 127.791 291.5 130V139.5C291.5 141.709 289.709 143.5 287.5 143.5H248.5C246.291 143.5 244.5 145.291 244.5 147.5V264.5C244.5 266.709 242.709 268.5 240.5 268.5H231C228.791 268.5 227 266.709 227 264.5V206C227 203.791 225.209 202 223 202H185M439.625 221.5V186.5C439.625 184.291 441.416 182.5 443.625 182.5H484C486.209 182.5 488 184.291 488 186.5V238V264.5C488 266.709 489.791 268.5 492 268.5H495.5C497.709 268.5 499.5 266.709 499.5 264.5V212.24C499.5 210.848 500.223 209.557 501.41 208.83L528.59 192.17C529.777 191.443 530.5 190.152 530.5 188.76V179.565C530.5 178.269 531.127 177.054 532.183 176.304L543.183 168.488C545.832 166.606 549.5 168.5 549.5 171.749V206C549.5 208.209 551.291 210 553.5 210H559C561.209 210 563 211.791 563 214V224M563 268.5V238V224M563 224H583.5H592C594.209 224 596 225.791 596 228V235.5M596 235.5H591.5C589.291 235.5 587.5 237.291 587.5 239.5V269.5M596 235.5H613.5M613.5 235.5H617.5C619.709 235.5 621.5 237.291 621.5 239.5V269.5M613.5 235.5V181.5C613.5 179.291 615.291 177.5 617.5 177.5H648C650.209 177.5 652 179.291 652 181.5V216.5M652 216.5H643C640.791 216.5 639 218.291 639 220.5V269.5M652 216.5H662C664.209 216.5 666 214.709 666 212.5V195C666 192.791 667.791 191 670 191H686C688.209 191 690 192.791 690 195V240M690 240H677C674.791 240 673 241.791 673 244V269.5M690 240H715.5C717.709 240 719.5 241.791 719.5 244V265.5C719.5 267.709 721.291 269.5 723.5 269.5H726.5C728.709 269.5 730.5 267.709 730.5 265.5V262.5M185 202V176C185 173.791 183.209 172 181 172H74C71.7909 172 70 173.791 70 176V200.375M70 285.5V228.75V200.375M70 200.375H17.5M519 211H516.5C514.291 211 512.5 212.791 512.5 215V259.25C512.5 261.045 513.955 262.5 515.75 262.5V262.5C517.545 262.5 519 261.045 519 259.25V220.5C519 218.291 520.791 216.5 523 216.5H530.5H538.034C539.672 216.5 541 215.172 541 213.534V213.534C541 211.87 539.631 210.531 537.967 210.569L519 211ZM538.5 184.5H543C544.381 184.5 545.5 183.381 545.5 182V182C545.5 180.619 544.381 179.5 543 179.5H538.5C537.119 179.5 536 180.619 536 182V182C536 183.381 537.119 184.5 538.5 184.5Z" stroke="#A395BA" stroke-width="2" stroke-linecap="square"/>
<path d="M1081.5 268.5V225.5C1081.5 223.291 1079.71 221.5 1077.5 221.5H1067.62M1067.62 221.5H1053.75H1030C1027.79 221.5 1026 219.709 1026 217.5V172C1026 169.791 1024.21 168 1022 168H1002C999.791 168 998 169.791 998 172V264.5C998 266.709 996.209 268.5 994 268.5H969.5C967.291 268.5 965.5 266.709 965.5 264.5V130C965.5 127.791 963.709 126 961.5 126H938C935.791 126 934 127.791 934 130V139.5C934 141.709 932.209 143.5 930 143.5H876.5C874.291 143.5 872.5 145.291 872.5 147.5V264.5C872.5 266.709 870.709 268.5 868.5 268.5H859C856.791 268.5 855 266.709 855 264.5V206C855 203.791 853.209 202 851 202H775C772.791 202 771 203.791 771 206V232.5C771 234.709 769.209 236.5 767 236.5H734.5C732.291 236.5 730.5 238.291 730.5 240.5V262.5M1067.62 221.5V186.5C1067.62 184.291 1069.42 182.5 1071.63 182.5H1112C1114.21 182.5 1116 184.291 1116 186.5V238V264.5C1116 266.709 1117.79 268.5 1120 268.5H1123.5C1125.71 268.5 1127.5 266.709 1127.5 264.5V212.24C1127.5 210.848 1128.22 209.557 1129.41 208.83L1156.59 192.17C1157.78 191.443 1158.5 190.152 1158.5 188.76V179.565C1158.5 178.269 1159.13 177.054 1160.18 176.304L1171.18 168.488C1173.83 166.606 1177.5 168.5 1177.5 171.749V206C1177.5 208.209 1179.29 210 1181.5 210H1187C1189.21 210 1191 211.791 1191 214V224M1191 268.5V238V224M1191 224H1211.5H1220C1222.21 224 1224 225.791 1224 228V235.5M1224 235.5H1219.5C1217.29 235.5 1215.5 237.291 1215.5 239.5V269.5M1224 235.5H1241.5M1241.5 235.5H1245.5C1247.71 235.5 1249.5 237.291 1249.5 239.5V269.5M1241.5 235.5V181.5C1241.5 179.291 1243.29 177.5 1245.5 177.5H1276C1278.21 177.5 1280 179.291 1280 181.5V216.5M1280 216.5H1271C1268.79 216.5 1267 218.291 1267 220.5V269.5M1280 216.5H1290C1292.21 216.5 1294 214.709 1294 212.5V195C1294 192.791 1295.79 191 1298 191H1314C1316.21 191 1318 192.791 1318 195V240M1318 240H1305C1302.79 240 1301 241.791 1301 244V269.5M1318 240H1343.5C1345.71 240 1347.5 241.791 1347.5 244V264.5C1347.5 266.709 1349.29 268.5 1351.5 268.5H1356.5C1358.71 268.5 1360.5 266.709 1360.5 264.5V187.5C1360.5 185.291 1362.29 183.5 1364.5 183.5H1396.5M1396.5 183.5V268.5M1396.5 183.5H1413.5C1415.71 183.5 1417.5 185.291 1417.5 187.5V264.5C1417.5 266.709 1419.29 268.5 1421.5 268.5H1445.5C1447.71 268.5 1449.5 266.709 1449.5 264.5V237C1449.5 234.791 1451.29 233 1453.5 233H1488C1490.21 233 1492 234.791 1492 237V265.5C1492 267.709 1493.79 269.5 1496 269.5H1510.5C1512.71 269.5 1514.5 267.709 1514.5 265.5V176.5C1514.5 174.291 1516.29 172.5 1518.5 172.5H1542C1544.21 172.5 1546 170.709 1546 168.5V162C1546 159.791 1547.79 158 1550 158H1557.5C1559.71 158 1561.5 159.791 1561.5 162V215.5M1541.5 269.5V219.5C1541.5 217.291 1543.29 215.5 1545.5 215.5H1577.5C1579.71 215.5 1581.5 217.291 1581.5 219.5V265.5C1581.5 267.709 1583.29 269.5 1585.5 269.5H1594C1596.21 269.5 1598 267.709 1598 265.5V237C1598 234.791 1599.79 233 1602 233H1634C1636.21 233 1638 234.791 1638 237V251M1638 251H1625.5C1623.29 251 1621.5 252.791 1621.5 255V269.5M1638 251H1664.5C1666.71 251 1668.5 252.791 1668.5 255V265.5C1668.5 267.709 1670.29 269.5 1672.5 269.5H1682C1684.21 269.5 1686 267.709 1686 265.5V158C1686 155.791 1687.79 154 1690 154H1710C1712.21 154 1714 152.209 1714 150V101C1714 98.7909 1715.79 97 1718 97H1768C1770.21 97 1772 98.7909 1772 101V190M1772 190H1748C1745.79 190 1744 191.791 1744 194V269.5M1772 190H1812.5C1814.71 190 1816.5 188.209 1816.5 186V142C1816.5 139.791 1818.29 138 1820.5 138H1847.5C1849.71 138 1851.5 139.791 1851.5 142V191.5V227.5M1851.5 227.5H1797.5C1795.29 227.5 1793.5 229.291 1793.5 231.5V269.5M1851.5 227.5H1877C1879.21 227.5 1881 229.291 1881 231.5V265.5C1881 267.709 1882.79 269.5 1885 269.5H1889.5C1891.71 269.5 1893.5 267.709 1893.5 265.5V223.5C1893.5 221.291 1895.29 219.5 1897.5 219.5H1911C1913.21 219.5 1915 221.291 1915 223.5V244.5M1915 244.5H1961C1963.21 244.5 1965 242.709 1965 240.5V214C1965 211.791 1966.79 210 1969 210H1990M1915 244.5V269.5M1147 211H1144.5C1142.29 211 1140.5 212.791 1140.5 215V259.25C1140.5 261.045 1141.96 262.5 1143.75 262.5V262.5C1145.54 262.5 1147 261.045 1147 259.25V220.5C1147 218.291 1148.79 216.5 1151 216.5H1158.5H1166.03C1167.67 216.5 1169 215.172 1169 213.534V213.534C1169 211.87 1167.63 210.531 1165.97 210.569L1147 211ZM1166.5 184.5H1171C1172.38 184.5 1173.5 183.381 1173.5 182V182C1173.5 180.619 1172.38 179.5 1171 179.5H1166.5C1165.12 179.5 1164 180.619 1164 182V182C1164 183.381 1165.12 184.5 1166.5 184.5Z" stroke="#A395BA" stroke-width="2" stroke-linecap="square"/>
<path d="M549.25 235H533.75C531.955 235 530.5 236.455 530.5 238.25C530.5 240.045 531.955 241.5 533.75 241.5H549.25C551.045 241.5 552.5 240.045 552.5 238.25C552.5 236.455 551.045 235 549.25 235Z" fill="#A395BA" stroke="#A395BA" stroke-width="2" stroke-linecap="square"/>
<path d="M384.75 183H369.25C367.455 183 366 184.455 366 186.25C366 188.045 367.455 189.5 369.25 189.5H384.75C386.545 189.5 388 188.045 388 186.25C388 184.455 386.545 183 384.75 183Z" stroke="#A395BA" stroke-width="2" stroke-linecap="square"/>
<path d="M630.5 216H623.5C621.291 216 619.5 217.791 619.5 220V229.5C619.5 231.709 621.291 233.5 623.5 233.5H630.5C632.709 233.5 634.5 231.709 634.5 229.5V220C634.5 217.791 632.709 216 630.5 216Z" fill="#A395BA" stroke="#A395BA" stroke-width="2" stroke-linecap="square"/>
<path d="M1014 179H1007C1004.79 179 1003 180.791 1003 183V184C1003 186.209 1004.79 188 1007 188H1014C1016.21 188 1018 186.209 1018 184V183C1018 180.791 1016.21 179 1014 179Z" stroke="#A395BA" stroke-width="2" stroke-linecap="square"/>
<path d="M1014 194H1007C1004.79 194 1003 195.791 1003 198V199C1003 201.209 1004.79 203 1007 203H1014C1016.21 203 1018 201.209 1018 199V198C1018 195.791 1016.21 194 1014 194Z" fill="#A395BA" stroke="#A395BA" stroke-width="2" stroke-linecap="square"/>
<path d="M1014 209H1007C1004.79 209 1003 210.791 1003 213V214C1003 216.209 1004.79 218 1007 218H1014C1016.21 218 1018 216.209 1018 214V213C1018 210.791 1016.21 209 1014 209Z" fill="#E5315C" stroke="#A395BA" stroke-width="2" stroke-linecap="square"/>
<path d="M1014 231H1007C1004.79 231 1003 232.791 1003 235V236C1003 238.209 1004.79 240 1007 240H1014C1016.21 240 1018 238.209 1018 236V235C1018 232.791 1016.21 231 1014 231Z" stroke="#A395BA" stroke-width="2" stroke-linecap="square"/>
<path d="M1038 231H1031C1028.79 231 1027 232.791 1027 235V236C1027 238.209 1028.79 240 1031 240H1038C1040.21 240 1042 238.209 1042 236V235C1042 232.791 1040.21 231 1038 231Z" stroke="#A395BA" stroke-width="2" stroke-linecap="square"/>
<path d="M1062 231H1055C1052.79 231 1051 232.791 1051 235V236C1051 238.209 1052.79 240 1055 240H1062C1064.21 240 1066 238.209 1066 236V235C1066 232.791 1064.21 231 1062 231Z" fill="#E5315C" stroke="#E5315C" stroke-width="2" stroke-linecap="square"/>
<path d="M1386.5 191H1371C1369.07 191 1367.5 192.567 1367.5 194.5C1367.5 196.433 1369.07 198 1371 198H1386.5C1388.43 198 1390 196.433 1390 194.5C1390 192.567 1388.43 191 1386.5 191Z" stroke="#A395BA" stroke-width="2" stroke-linecap="square"/>
<path d="M1382 214H1366.5C1364.57 214 1363 215.567 1363 217.5C1363 219.433 1364.57 221 1366.5 221H1382C1383.93 221 1385.5 219.433 1385.5 217.5C1385.5 215.567 1383.93 214 1382 214Z" fill="#E5315C" stroke="#E5315C" stroke-width="2" stroke-linecap="square"/>
<path d="M1390 225H1374.5C1372.57 225 1371 226.567 1371 228.5C1371 230.433 1372.57 232 1374.5 232H1390C1391.93 232 1393.5 230.433 1393.5 228.5C1393.5 226.567 1391.93 225 1390 225Z" stroke="#2A2237" stroke-width="2" stroke-linecap="square"/>
<path d="M1386 243H1370.5C1368.57 243 1367 244.567 1367 246.5C1367 248.433 1368.57 250 1370.5 250H1386C1387.93 250 1389.5 248.433 1389.5 246.5C1389.5 244.567 1387.93 243 1386 243Z" stroke="#A395BA" stroke-width="2" stroke-linecap="square"/>
<path d="M1555.5 163H1551.5C1550.12 163 1549 164.119 1549 165.5C1549 166.881 1550.12 168 1551.5 168H1555.5C1556.88 168 1558 166.881 1558 165.5C1558 164.119 1556.88 163 1555.5 163Z" stroke="#A395BA" stroke-width="2" stroke-linecap="square"/>
<path d="M1686 201H1704C1706.21 201 1708 202.791 1708 205V205C1708 207.209 1706.21 209 1704 209H1686" stroke="#A395BA" stroke-width="2" stroke-linecap="square"/>
<path d="M1828 199.5V151C1828 148.791 1829.79 147 1832 147H1837.5C1839.71 147 1841.5 148.791 1841.5 151V210.5C1841.5 212.709 1839.71 214.5 1837.5 214.5H1777.5C1775.29 214.5 1773.5 216.291 1773.5 218.5V255.5C1773.5 257.709 1771.71 259.5 1769.5 259.5H1765C1762.79 259.5 1761 257.709 1761 255.5V207.5C1761 205.291 1762.79 203.5 1765 203.5H1824C1826.21 203.5 1828 201.709 1828 199.5Z" stroke="#E5315C" stroke-width="2" stroke-linecap="square"/>
</g>
<g clip-path="url(#clip1_77_41)">
<path d="M347.9 91.55C349.52 89.39 352.1 88 355 88C357.9 88 360.48 89.39 362.1 91.55C362.18 91.6561 362.298 91.7262 362.429 91.745C362.561 91.7637 362.694 91.7296 362.8 91.65C362.906 91.5704 362.976 91.452 362.995 91.3207C363.014 91.1894 362.98 91.0561 362.9 90.95C361.1 88.55 358.23 87 355 87C351.77 87 348.9 88.55 347.1 90.95C347.027 91.0563 346.997 91.1868 347.018 91.3143C347.039 91.4418 347.108 91.5563 347.211 91.6338C347.315 91.7114 347.444 91.746 347.572 91.7303C347.7 91.7147 347.818 91.6501 347.9 91.55Z" fill="#2A2237"/>
<path d="M349.9 93.55C350.493 92.7574 351.263 92.1141 352.148 91.6714C353.034 91.2287 354.01 90.9988 355 91C357.09 91 358.94 92 360.1 93.55C360.139 93.6025 360.189 93.6468 360.245 93.6802C360.302 93.7137 360.364 93.7357 360.429 93.745C360.494 93.7543 360.56 93.7507 360.624 93.7344C360.688 93.7181 360.747 93.6894 360.8 93.65C360.852 93.6106 360.897 93.5612 360.93 93.5047C360.964 93.4482 360.986 93.3857 360.995 93.3207C361.004 93.2557 361.001 93.1895 360.984 93.1259C360.968 93.0623 360.939 93.0025 360.9 92.95C359.56 91.16 357.41 90 355 90C352.59 90 350.44 91.16 349.1 92.95C349.027 93.0563 348.997 93.1868 349.018 93.3143C349.039 93.4418 349.108 93.5563 349.211 93.6338C349.315 93.7114 349.444 93.746 349.572 93.7303C349.7 93.7147 349.817 93.6501 349.899 93.55H349.9Z" fill="#2A2237"/>
<path d="M355 94C353.73 94 352.61 94.608 351.9 95.55C351.82 95.6561 351.702 95.7262 351.571 95.745C351.439 95.7637 351.306 95.7296 351.2 95.65C351.094 95.5704 351.024 95.452 351.005 95.3207C350.986 95.1894 351.02 95.0561 351.1 94.95C351.554 94.344 352.142 93.8521 352.819 93.5132C353.496 93.1744 354.243 92.998 355 92.998C355.757 92.998 356.504 93.1744 357.181 93.5132C357.858 93.8521 358.446 94.344 358.9 94.95C358.973 95.0563 359.003 95.1868 358.982 95.3143C358.961 95.4418 358.892 95.5563 358.789 95.6338C358.685 95.7114 358.556 95.746 358.428 95.7303C358.3 95.7147 358.183 95.6501 358.101 95.55C357.74 95.0685 357.272 94.6776 356.734 94.4086C356.196 94.1395 355.603 93.9996 355.001 94H355ZM355 99C355.265 99 355.52 98.8946 355.707 98.7071C355.895 98.5196 356 98.2652 356 98C356 97.7348 355.895 97.4804 355.707 97.2929C355.52 97.1054 355.265 97 355 97C354.735 97 354.48 97.1054 354.293 97.2929C354.105 97.4804 354 97.7348 354 98C354 98.2652 354.105 98.5196 354.293 98.7071C354.48 98.8946 354.735 99 355 99Z" fill="#2A2237"/>
</g>
<path d="M162.9 226.55C163.493 225.757 164.263 225.114 165.148 224.671C166.034 224.229 167.01 223.999 168 224C170.09 224 171.94 225 173.1 226.55C173.139 226.603 173.189 226.647 173.245 226.68C173.302 226.714 173.364 226.736 173.429 226.745C173.494 226.754 173.56 226.751 173.624 226.734C173.688 226.718 173.747 226.689 173.8 226.65C173.852 226.611 173.897 226.561 173.93 226.505C173.964 226.448 173.986 226.386 173.995 226.321C174.004 226.256 174.001 226.19 173.984 226.126C173.968 226.062 173.939 226.003 173.9 225.95C172.56 224.16 170.41 223 168 223C165.59 223 163.44 224.16 162.1 225.95C162.027 226.056 161.997 226.187 162.018 226.314C162.039 226.442 162.108 226.556 162.211 226.634C162.315 226.711 162.444 226.746 162.572 226.73C162.7 226.715 162.817 226.65 162.899 226.55H162.9Z" fill="#2A2237"/>
<path d="M168 227C166.73 227 165.61 227.608 164.9 228.55C164.82 228.656 164.702 228.726 164.571 228.745C164.439 228.764 164.306 228.73 164.2 228.65C164.094 228.57 164.024 228.452 164.005 228.321C163.986 228.189 164.02 228.056 164.1 227.95C164.554 227.344 165.142 226.852 165.819 226.513C166.496 226.174 167.243 225.998 168 225.998C168.757 225.998 169.504 226.174 170.181 226.513C170.858 226.852 171.446 227.344 171.9 227.95C171.973 228.056 172.003 228.187 171.982 228.314C171.961 228.442 171.892 228.556 171.789 228.634C171.685 228.711 171.556 228.746 171.428 228.73C171.3 228.715 171.183 228.65 171.101 228.55C170.74 228.068 170.272 227.678 169.734 227.409C169.196 227.139 168.603 227 168.001 227H168ZM168 232C168.265 232 168.52 231.895 168.707 231.707C168.895 231.52 169 231.265 169 231C169 230.735 168.895 230.48 168.707 230.293C168.52 230.105 168.265 230 168 230C167.735 230 167.48 230.105 167.293 230.293C167.105 230.48 167 230.735 167 231C167 231.265 167.105 231.52 167.293 231.707C167.48 231.895 167.735 232 168 232Z" fill="#2A2237"/>
<g clip-path="url(#clip2_77_41)">
<path d="M725.9 61.55C727.52 59.39 730.1 58 733 58C735.9 58 738.48 59.39 740.1 61.55C740.18 61.6561 740.298 61.7262 740.429 61.745C740.561 61.7637 740.694 61.7296 740.8 61.65C740.906 61.5704 740.976 61.452 740.995 61.3207C741.014 61.1894 740.98 61.0561 740.9 60.95C739.1 58.55 736.23 57 733 57C729.77 57 726.9 58.55 725.1 60.95C725.027 61.0563 724.997 61.1868 725.018 61.3143C725.039 61.4418 725.108 61.5563 725.211 61.6338C725.315 61.7114 725.444 61.746 725.572 61.7303C725.7 61.7147 725.818 61.6501 725.9 61.55Z" fill="#2A2237"/>
<path d="M727.9 63.55C728.493 62.7574 729.263 62.1141 730.148 61.6714C731.034 61.2287 732.01 60.9988 733 61C735.09 61 736.94 62 738.1 63.55C738.139 63.6025 738.189 63.6468 738.245 63.6802C738.302 63.7137 738.364 63.7357 738.429 63.745C738.494 63.7543 738.56 63.7507 738.624 63.7344C738.688 63.7181 738.747 63.6894 738.8 63.65C738.852 63.6106 738.897 63.5612 738.93 63.5047C738.964 63.4482 738.986 63.3857 738.995 63.3207C739.004 63.2557 739.001 63.1895 738.984 63.1259C738.968 63.0623 738.939 63.0025 738.9 62.95C737.56 61.16 735.41 60 733 60C730.59 60 728.44 61.16 727.1 62.95C727.027 63.0563 726.997 63.1868 727.018 63.3143C727.039 63.4418 727.108 63.5563 727.211 63.6338C727.315 63.7114 727.444 63.746 727.572 63.7303C727.7 63.7147 727.817 63.6501 727.899 63.55H727.9Z" fill="#2A2237"/>
<path d="M733 64C731.73 64 730.61 64.608 729.9 65.55C729.82 65.6561 729.702 65.7262 729.571 65.745C729.439 65.7637 729.306 65.7296 729.2 65.65C729.094 65.5704 729.024 65.452 729.005 65.3207C728.986 65.1894 729.02 65.0561 729.1 64.95C729.554 64.344 730.142 63.8521 730.819 63.5132C731.496 63.1744 732.243 62.998 733 62.998C733.757 62.998 734.504 63.1744 735.181 63.5132C735.858 63.8521 736.446 64.344 736.9 64.95C736.973 65.0563 737.003 65.1868 736.982 65.3143C736.961 65.4418 736.892 65.5563 736.789 65.6338C736.685 65.7114 736.556 65.746 736.428 65.7303C736.3 65.7147 736.183 65.6501 736.101 65.55C735.74 65.0685 735.272 64.6776 734.734 64.4086C734.196 64.1395 733.603 63.9996 733.001 64H733ZM733 69C733.265 69 733.52 68.8946 733.707 68.7071C733.895 68.5196 734 68.2652 734 68C734 67.7348 733.895 67.4804 733.707 67.2929C733.52 67.1054 733.265 67 733 67C732.735 67 732.48 67.1054 732.293 67.2929C732.105 67.4804 732 67.7348 732 68C732 68.2652 732.105 68.5196 732.293 68.7071C732.48 68.8946 732.735 69 733 69Z" fill="#2A2237"/>
</g>
<path d="M526.9 231.6C527.608 230.658 528.73 230.05 530 230.05C531.27 230.05 532.39 230.658 533.1 231.6C533.18 231.706 533.298 231.776 533.429 231.795C533.561 231.814 533.694 231.78 533.8 231.7C533.906 231.62 533.976 231.502 533.995 231.371C534.014 231.239 533.98 231.106 533.9 231C533.446 230.394 532.858 229.902 532.181 229.563C531.504 229.224 530.757 229.048 530 229.048C529.243 229.048 528.496 229.224 527.819 229.563C527.142 229.902 526.554 230.394 526.1 231C526.027 231.106 525.997 231.237 526.018 231.364C526.039 231.492 526.108 231.606 526.211 231.684C526.315 231.761 526.444 231.796 526.572 231.78C526.7 231.765 526.818 231.7 526.9 231.6ZM530 235C530.265 235 530.52 234.895 530.707 234.707C530.895 234.52 531 234.265 531 234C531 233.735 530.895 233.48 530.707 233.293C530.52 233.105 530.265 233 530 233C529.735 233 529.48 233.105 529.293 233.293C529.105 233.48 529 233.735 529 234C529 234.265 529.105 234.52 529.293 234.707C529.48 234.895 529.735 235 530 235Z" fill="#2A2237"/>
<g clip-path="url(#clip3_77_41)">
<path d="M965.9 91.55C967.52 89.39 970.1 88 973 88C975.9 88 978.48 89.39 980.1 91.55C980.18 91.6561 980.298 91.7262 980.429 91.745C980.561 91.7637 980.694 91.7296 980.8 91.65C980.906 91.5704 980.976 91.452 980.995 91.3207C981.014 91.1894 980.98 91.0561 980.9 90.95C979.1 88.55 976.23 87 973 87C969.77 87 966.9 88.55 965.1 90.95C965.027 91.0563 964.997 91.1868 965.018 91.3143C965.039 91.4418 965.108 91.5563 965.211 91.6338C965.315 91.7114 965.444 91.746 965.572 91.7303C965.7 91.7147 965.818 91.6501 965.9 91.55Z" fill="#2A2237"/>
<path d="M967.9 93.55C968.493 92.7574 969.263 92.1141 970.148 91.6714C971.034 91.2287 972.01 90.9988 973 91C975.09 91 976.94 92 978.1 93.55C978.139 93.6025 978.189 93.6468 978.245 93.6802C978.302 93.7137 978.364 93.7357 978.429 93.745C978.494 93.7543 978.56 93.7507 978.624 93.7344C978.688 93.7181 978.747 93.6894 978.8 93.65C978.852 93.6106 978.897 93.5612 978.93 93.5047C978.964 93.4482 978.986 93.3857 978.995 93.3207C979.004 93.2557 979.001 93.1895 978.984 93.1259C978.968 93.0623 978.939 93.0025 978.9 92.95C977.56 91.16 975.41 90 973 90C970.59 90 968.44 91.16 967.1 92.95C967.027 93.0563 966.997 93.1868 967.018 93.3143C967.039 93.4418 967.108 93.5563 967.211 93.6338C967.315 93.7114 967.444 93.746 967.572 93.7303C967.7 93.7147 967.817 93.6501 967.899 93.55H967.9Z" fill="#2A2237"/>
<path d="M973 94C971.73 94 970.61 94.608 969.9 95.55C969.82 95.6561 969.702 95.7262 969.571 95.745C969.439 95.7637 969.306 95.7296 969.2 95.65C969.094 95.5704 969.024 95.452 969.005 95.3207C968.986 95.1894 969.02 95.0561 969.1 94.95C969.554 94.344 970.142 93.8521 970.819 93.5132C971.496 93.1744 972.243 92.998 973 92.998C973.757 92.998 974.504 93.1744 975.181 93.5132C975.858 93.8521 976.446 94.344 976.9 94.95C976.973 95.0563 977.003 95.1868 976.982 95.3143C976.961 95.4418 976.892 95.5563 976.789 95.6338C976.685 95.7114 976.556 95.746 976.428 95.7303C976.3 95.7147 976.183 95.6501 976.101 95.55C975.74 95.0685 975.272 94.6776 974.734 94.4086C974.196 94.1395 973.603 93.9996 973.001 94H973ZM973 99C973.265 99 973.52 98.8946 973.707 98.7071C973.895 98.5196 974 98.2652 974 98C974 97.7348 973.895 97.4804 973.707 97.2929C973.52 97.1054 973.265 97 973 97C972.735 97 972.48 97.1054 972.293 97.2929C972.105 97.4804 972 97.7348 972 98C972 98.2652 972.105 98.5196 972.293 98.7071C972.48 98.8946 972.735 99 973 99Z" fill="#2A2237"/>
</g>
<path d="M802.9 229.55C803.493 228.757 804.263 228.114 805.148 227.671C806.034 227.229 807.01 226.999 808 227C810.09 227 811.94 228 813.1 229.55C813.139 229.603 813.189 229.647 813.245 229.68C813.302 229.714 813.364 229.736 813.429 229.745C813.494 229.754 813.56 229.751 813.624 229.734C813.688 229.718 813.747 229.689 813.8 229.65C813.852 229.611 813.897 229.561 813.93 229.505C813.964 229.448 813.986 229.386 813.995 229.321C814.004 229.256 814.001 229.19 813.984 229.126C813.968 229.062 813.939 229.003 813.9 228.95C812.56 227.16 810.41 226 808 226C805.59 226 803.44 227.16 802.1 228.95C802.027 229.056 801.997 229.187 802.018 229.314C802.039 229.442 802.108 229.556 802.211 229.634C802.315 229.711 802.444 229.746 802.572 229.73C802.7 229.715 802.817 229.65 802.899 229.55H802.9Z" fill="#2A2237"/>
<path d="M808 230C806.73 230 805.61 230.608 804.9 231.55C804.82 231.656 804.702 231.726 804.571 231.745C804.439 231.764 804.306 231.73 804.2 231.65C804.094 231.57 804.024 231.452 804.005 231.321C803.986 231.189 804.02 231.056 804.1 230.95C804.554 230.344 805.142 229.852 805.819 229.513C806.496 229.174 807.243 228.998 808 228.998C808.757 228.998 809.504 229.174 810.181 229.513C810.858 229.852 811.446 230.344 811.9 230.95C811.973 231.056 812.003 231.187 811.982 231.314C811.961 231.442 811.892 231.556 811.789 231.634C811.685 231.711 811.556 231.746 811.428 231.73C811.3 231.715 811.183 231.65 811.101 231.55C810.74 231.068 810.272 230.678 809.734 230.409C809.196 230.139 808.603 230 808.001 230H808ZM808 235C808.265 235 808.52 234.895 808.707 234.707C808.895 234.52 809 234.265 809 234C809 233.735 808.895 233.48 808.707 233.293C808.52 233.105 808.265 233 808 233C807.735 233 807.48 233.105 807.293 233.293C807.105 233.48 807 233.735 807 234C807 234.265 807.105 234.52 807.293 234.707C807.48 234.895 807.735 235 808 235Z" fill="#2A2237"/>
<path d="M1584.9 247.55C1585.49 246.757 1586.26 246.114 1587.15 245.671C1588.03 245.229 1589.01 244.999 1590 245C1592.09 245 1593.94 246 1595.1 247.55C1595.14 247.603 1595.19 247.647 1595.25 247.68C1595.3 247.714 1595.36 247.736 1595.43 247.745C1595.49 247.754 1595.56 247.751 1595.62 247.734C1595.69 247.718 1595.75 247.689 1595.8 247.65C1595.85 247.611 1595.9 247.561 1595.93 247.505C1595.96 247.448 1595.99 247.386 1595.99 247.321C1596 247.256 1596 247.19 1595.98 247.126C1595.97 247.062 1595.94 247.003 1595.9 246.95C1594.56 245.16 1592.41 244 1590 244C1587.59 244 1585.44 245.16 1584.1 246.95C1584.03 247.056 1584 247.187 1584.02 247.314C1584.04 247.442 1584.11 247.556 1584.21 247.634C1584.31 247.711 1584.44 247.746 1584.57 247.73C1584.7 247.715 1584.82 247.65 1584.9 247.55H1584.9Z" fill="#2A2237"/>
<path d="M1590 248C1588.73 248 1587.61 248.608 1586.9 249.55C1586.82 249.656 1586.7 249.726 1586.57 249.745C1586.44 249.764 1586.31 249.73 1586.2 249.65C1586.09 249.57 1586.02 249.452 1586.01 249.321C1585.99 249.189 1586.02 249.056 1586.1 248.95C1586.55 248.344 1587.14 247.852 1587.82 247.513C1588.5 247.174 1589.24 246.998 1590 246.998C1590.76 246.998 1591.5 247.174 1592.18 247.513C1592.86 247.852 1593.45 248.344 1593.9 248.95C1593.97 249.056 1594 249.187 1593.98 249.314C1593.96 249.442 1593.89 249.556 1593.79 249.634C1593.69 249.711 1593.56 249.746 1593.43 249.73C1593.3 249.715 1593.18 249.65 1593.1 249.55C1592.74 249.068 1592.27 248.678 1591.73 248.409C1591.2 248.139 1590.6 248 1590 248H1590ZM1590 253C1590.27 253 1590.52 252.895 1590.71 252.707C1590.89 252.52 1591 252.265 1591 252C1591 251.735 1590.89 251.48 1590.71 251.293C1590.52 251.105 1590.27 251 1590 251C1589.73 251 1589.48 251.105 1589.29 251.293C1589.11 251.48 1589 251.735 1589 252C1589 252.265 1589.11 252.52 1589.29 252.707C1589.48 252.895 1589.73 253 1590 253Z" fill="#2A2237"/>
<path d="M1732.9 242.55C1733.49 241.757 1734.26 241.114 1735.15 240.671C1736.03 240.229 1737.01 239.999 1738 240C1740.09 240 1741.94 241 1743.1 242.55C1743.14 242.603 1743.19 242.647 1743.25 242.68C1743.3 242.714 1743.36 242.736 1743.43 242.745C1743.49 242.754 1743.56 242.751 1743.62 242.734C1743.69 242.718 1743.75 242.689 1743.8 242.65C1743.85 242.611 1743.9 242.561 1743.93 242.505C1743.96 242.448 1743.99 242.386 1743.99 242.321C1744 242.256 1744 242.19 1743.98 242.126C1743.97 242.062 1743.94 242.003 1743.9 241.95C1742.56 240.16 1740.41 239 1738 239C1735.59 239 1733.44 240.16 1732.1 241.95C1732.03 242.056 1732 242.187 1732.02 242.314C1732.04 242.442 1732.11 242.556 1732.21 242.634C1732.31 242.711 1732.44 242.746 1732.57 242.73C1732.7 242.715 1732.82 242.65 1732.9 242.55H1732.9Z" fill="#2A2237"/>
<path d="M1738 243C1736.73 243 1735.61 243.608 1734.9 244.55C1734.82 244.656 1734.7 244.726 1734.57 244.745C1734.44 244.764 1734.31 244.73 1734.2 244.65C1734.09 244.57 1734.02 244.452 1734.01 244.321C1733.99 244.189 1734.02 244.056 1734.1 243.95C1734.55 243.344 1735.14 242.852 1735.82 242.513C1736.5 242.174 1737.24 241.998 1738 241.998C1738.76 241.998 1739.5 242.174 1740.18 242.513C1740.86 242.852 1741.45 243.344 1741.9 243.95C1741.97 244.056 1742 244.187 1741.98 244.314C1741.96 244.442 1741.89 244.556 1741.79 244.634C1741.69 244.711 1741.56 244.746 1741.43 244.73C1741.3 244.715 1741.18 244.65 1741.1 244.55C1740.74 244.068 1740.27 243.678 1739.73 243.409C1739.2 243.139 1738.6 243 1738 243H1738ZM1738 248C1738.27 248 1738.52 247.895 1738.71 247.707C1738.89 247.52 1739 247.265 1739 247C1739 246.735 1738.89 246.48 1738.71 246.293C1738.52 246.105 1738.27 246 1738 246C1737.73 246 1737.48 246.105 1737.29 246.293C1737.11 246.48 1737 246.735 1737 247C1737 247.265 1737.11 247.52 1737.29 247.707C1737.48 247.895 1737.73 248 1738 248Z" fill="#2A2237"/>
<path d="M912.9 245.6C913.608 244.658 914.73 244.05 916 244.05C917.27 244.05 918.39 244.658 919.1 245.6C919.18 245.706 919.298 245.776 919.429 245.795C919.561 245.814 919.694 245.78 919.8 245.7C919.906 245.62 919.976 245.502 919.995 245.371C920.014 245.239 919.98 245.106 919.9 245C919.446 244.394 918.858 243.902 918.181 243.563C917.504 243.224 916.757 243.048 916 243.048C915.243 243.048 914.496 243.224 913.819 243.563C913.142 243.902 912.554 244.394 912.1 245C912.027 245.106 911.997 245.237 912.018 245.364C912.039 245.492 912.108 245.606 912.211 245.684C912.315 245.761 912.444 245.796 912.572 245.78C912.7 245.765 912.818 245.7 912.9 245.6ZM916 249C916.265 249 916.52 248.895 916.707 248.707C916.895 248.52 917 248.265 917 248C917 247.735 916.895 247.48 916.707 247.293C916.52 247.105 916.265 247 916 247C915.735 247 915.48 247.105 915.293 247.293C915.105 247.48 915 247.735 915 248C915 248.265 915.105 248.52 915.293 248.707C915.48 248.895 915.735 249 916 249Z" fill="#2A2237"/>
<path d="M1195.9 237.6C1196.61 236.658 1197.73 236.05 1199 236.05C1200.27 236.05 1201.39 236.658 1202.1 237.6C1202.18 237.706 1202.3 237.776 1202.43 237.795C1202.56 237.814 1202.69 237.78 1202.8 237.7C1202.91 237.62 1202.98 237.502 1202.99 237.371C1203.01 237.239 1202.98 237.106 1202.9 237C1202.45 236.394 1201.86 235.902 1201.18 235.563C1200.5 235.224 1199.76 235.048 1199 235.048C1198.24 235.048 1197.5 235.224 1196.82 235.563C1196.14 235.902 1195.55 236.394 1195.1 237C1195.03 237.106 1195 237.237 1195.02 237.364C1195.04 237.492 1195.11 237.606 1195.21 237.684C1195.31 237.761 1195.44 237.796 1195.57 237.78C1195.7 237.765 1195.82 237.7 1195.9 237.6ZM1199 241C1199.27 241 1199.52 240.895 1199.71 240.707C1199.89 240.52 1200 240.265 1200 240C1200 239.735 1199.89 239.48 1199.71 239.293C1199.52 239.105 1199.27 239 1199 239C1198.73 239 1198.48 239.105 1198.29 239.293C1198.11 239.48 1198 239.735 1198 240C1198 240.265 1198.11 240.52 1198.29 240.707C1198.48 240.895 1198.73 241 1199 241Z" fill="#2A2237"/>
<g clip-path="url(#clip4_77_41)">
<path d="M1334.9 79.55C1336.52 77.39 1339.1 76 1342 76C1344.9 76 1347.48 77.39 1349.1 79.55C1349.18 79.6561 1349.3 79.7262 1349.43 79.745C1349.56 79.7637 1349.69 79.7296 1349.8 79.65C1349.91 79.5704 1349.98 79.452 1349.99 79.3207C1350.01 79.1894 1349.98 79.0561 1349.9 78.95C1348.1 76.55 1345.23 75 1342 75C1338.77 75 1335.9 76.55 1334.1 78.95C1334.03 79.0563 1334 79.1868 1334.02 79.3143C1334.04 79.4418 1334.11 79.5563 1334.21 79.6338C1334.31 79.7114 1334.44 79.746 1334.57 79.7303C1334.7 79.7147 1334.82 79.6501 1334.9 79.55Z" fill="#2A2237"/>
<path d="M1336.9 81.55C1337.49 80.7574 1338.26 80.1141 1339.15 79.6714C1340.03 79.2287 1341.01 78.9988 1342 79C1344.09 79 1345.94 80 1347.1 81.55C1347.14 81.6025 1347.19 81.6468 1347.25 81.6802C1347.3 81.7137 1347.36 81.7357 1347.43 81.745C1347.49 81.7543 1347.56 81.7507 1347.62 81.7344C1347.69 81.7181 1347.75 81.6894 1347.8 81.65C1347.85 81.6106 1347.9 81.5612 1347.93 81.5047C1347.96 81.4482 1347.99 81.3857 1347.99 81.3207C1348 81.2557 1348 81.1895 1347.98 81.1259C1347.97 81.0623 1347.94 81.0025 1347.9 80.95C1346.56 79.16 1344.41 78 1342 78C1339.59 78 1337.44 79.16 1336.1 80.95C1336.03 81.0563 1336 81.1868 1336.02 81.3143C1336.04 81.4418 1336.11 81.5563 1336.21 81.6338C1336.31 81.7114 1336.44 81.746 1336.57 81.7303C1336.7 81.7147 1336.82 81.6501 1336.9 81.55H1336.9Z" fill="#2A2237"/>
<path d="M1342 82C1340.73 82 1339.61 82.608 1338.9 83.55C1338.82 83.6561 1338.7 83.7262 1338.57 83.745C1338.44 83.7637 1338.31 83.7296 1338.2 83.65C1338.09 83.5704 1338.02 83.452 1338.01 83.3207C1337.99 83.1894 1338.02 83.0561 1338.1 82.95C1338.55 82.344 1339.14 81.8521 1339.82 81.5132C1340.5 81.1744 1341.24 80.998 1342 80.998C1342.76 80.998 1343.5 81.1744 1344.18 81.5132C1344.86 81.8521 1345.45 82.344 1345.9 82.95C1345.97 83.0563 1346 83.1868 1345.98 83.3143C1345.96 83.4418 1345.89 83.5563 1345.79 83.6338C1345.69 83.7114 1345.56 83.746 1345.43 83.7303C1345.3 83.7147 1345.18 83.6501 1345.1 83.55C1344.74 83.0685 1344.27 82.6776 1343.73 82.4086C1343.2 82.1395 1342.6 81.9996 1342 82H1342ZM1342 87C1342.27 87 1342.52 86.8946 1342.71 86.7071C1342.89 86.5196 1343 86.2652 1343 86C1343 85.7348 1342.89 85.4804 1342.71 85.2929C1342.52 85.1054 1342.27 85 1342 85C1341.73 85 1341.48 85.1054 1341.29 85.2929C1341.11 85.4804 1341 85.7348 1341 86C1341 86.2652 1341.11 86.5196 1341.29 86.7071C1341.48 86.8946 1341.73 87 1342 87Z" fill="#2A2237"/>
</g>
<g clip-path="url(#clip5_77_41)">
<path d="M1666.9 54.55C1668.52 52.39 1671.1 51 1674 51C1676.9 51 1679.48 52.39 1681.1 54.55C1681.18 54.6561 1681.3 54.7262 1681.43 54.745C1681.56 54.7637 1681.69 54.7296 1681.8 54.65C1681.91 54.5704 1681.98 54.452 1681.99 54.3207C1682.01 54.1894 1681.98 54.0561 1681.9 53.95C1680.1 51.55 1677.23 50 1674 50C1670.77 50 1667.9 51.55 1666.1 53.95C1666.03 54.0563 1666 54.1868 1666.02 54.3143C1666.04 54.4418 1666.11 54.5563 1666.21 54.6338C1666.31 54.7114 1666.44 54.746 1666.57 54.7303C1666.7 54.7147 1666.82 54.6501 1666.9 54.55Z" fill="#2A2237"/>
<path d="M1668.9 56.55C1669.49 55.7574 1670.26 55.1141 1671.15 54.6714C1672.03 54.2287 1673.01 53.9988 1674 54C1676.09 54 1677.94 55 1679.1 56.55C1679.14 56.6025 1679.19 56.6468 1679.25 56.6802C1679.3 56.7137 1679.36 56.7357 1679.43 56.745C1679.49 56.7543 1679.56 56.7507 1679.62 56.7344C1679.69 56.7181 1679.75 56.6894 1679.8 56.65C1679.85 56.6106 1679.9 56.5612 1679.93 56.5047C1679.96 56.4482 1679.99 56.3857 1679.99 56.3207C1680 56.2557 1680 56.1895 1679.98 56.1259C1679.97 56.0623 1679.94 56.0025 1679.9 55.95C1678.56 54.16 1676.41 53 1674 53C1671.59 53 1669.44 54.16 1668.1 55.95C1668.03 56.0563 1668 56.1868 1668.02 56.3143C1668.04 56.4418 1668.11 56.5563 1668.21 56.6338C1668.31 56.7114 1668.44 56.746 1668.57 56.7303C1668.7 56.7147 1668.82 56.6501 1668.9 56.55H1668.9Z" fill="#2A2237"/>
<path d="M1674 57C1672.73 57 1671.61 57.608 1670.9 58.55C1670.82 58.6561 1670.7 58.7262 1670.57 58.745C1670.44 58.7637 1670.31 58.7296 1670.2 58.65C1670.09 58.5704 1670.02 58.452 1670.01 58.3207C1669.99 58.1894 1670.02 58.0561 1670.1 57.95C1670.55 57.344 1671.14 56.8521 1671.82 56.5132C1672.5 56.1744 1673.24 55.998 1674 55.998C1674.76 55.998 1675.5 56.1744 1676.18 56.5132C1676.86 56.8521 1677.45 57.344 1677.9 57.95C1677.97 58.0563 1678 58.1868 1677.98 58.3143C1677.96 58.4418 1677.89 58.5563 1677.79 58.6338C1677.69 58.7114 1677.56 58.746 1677.43 58.7303C1677.3 58.7147 1677.18 58.6501 1677.1 58.55C1676.74 58.0685 1676.27 57.6776 1675.73 57.4086C1675.2 57.1395 1674.6 56.9996 1674 57H1674ZM1674 62C1674.27 62 1674.52 61.8946 1674.71 61.7071C1674.89 61.5196 1675 61.2652 1675 61C1675 60.7348 1674.89 60.4804 1674.71 60.2929C1674.52 60.1054 1674.27 60 1674 60C1673.73 60 1673.48 60.1054 1673.29 60.2929C1673.11 60.4804 1673 60.7348 1673 61C1673 61.2652 1673.11 61.5196 1673.29 61.7071C1673.48 61.8946 1673.73 62 1674 62Z" fill="#2A2237"/>
</g>
<g clip-path="url(#clip6_77_41)">
<path d="M1863.9 143.55C1865.52 141.39 1868.1 140 1871 140C1873.9 140 1876.48 141.39 1878.1 143.55C1878.18 143.656 1878.3 143.726 1878.43 143.745C1878.56 143.764 1878.69 143.73 1878.8 143.65C1878.91 143.57 1878.98 143.452 1878.99 143.321C1879.01 143.189 1878.98 143.056 1878.9 142.95C1877.1 140.55 1874.23 139 1871 139C1867.77 139 1864.9 140.55 1863.1 142.95C1863.03 143.056 1863 143.187 1863.02 143.314C1863.04 143.442 1863.11 143.556 1863.21 143.634C1863.31 143.711 1863.44 143.746 1863.57 143.73C1863.7 143.715 1863.82 143.65 1863.9 143.55Z" fill="#2A2237"/>
<path d="M1865.9 145.55C1866.49 144.757 1867.26 144.114 1868.15 143.671C1869.03 143.229 1870.01 142.999 1871 143C1873.09 143 1874.94 144 1876.1 145.55C1876.14 145.603 1876.19 145.647 1876.25 145.68C1876.3 145.714 1876.36 145.736 1876.43 145.745C1876.49 145.754 1876.56 145.751 1876.62 145.734C1876.69 145.718 1876.75 145.689 1876.8 145.65C1876.85 145.611 1876.9 145.561 1876.93 145.505C1876.96 145.448 1876.99 145.386 1876.99 145.321C1877 145.256 1877 145.19 1876.98 145.126C1876.97 145.062 1876.94 145.003 1876.9 144.95C1875.56 143.16 1873.41 142 1871 142C1868.59 142 1866.44 143.16 1865.1 144.95C1865.03 145.056 1865 145.187 1865.02 145.314C1865.04 145.442 1865.11 145.556 1865.21 145.634C1865.31 145.711 1865.44 145.746 1865.57 145.73C1865.7 145.715 1865.82 145.65 1865.9 145.55H1865.9Z" fill="#2A2237"/>
<path d="M1871 146C1869.73 146 1868.61 146.608 1867.9 147.55C1867.82 147.656 1867.7 147.726 1867.57 147.745C1867.44 147.764 1867.31 147.73 1867.2 147.65C1867.09 147.57 1867.02 147.452 1867.01 147.321C1866.99 147.189 1867.02 147.056 1867.1 146.95C1867.55 146.344 1868.14 145.852 1868.82 145.513C1869.5 145.174 1870.24 144.998 1871 144.998C1871.76 144.998 1872.5 145.174 1873.18 145.513C1873.86 145.852 1874.45 146.344 1874.9 146.95C1874.97 147.056 1875 147.187 1874.98 147.314C1874.96 147.442 1874.89 147.556 1874.79 147.634C1874.69 147.711 1874.56 147.746 1874.43 147.73C1874.3 147.715 1874.18 147.65 1874.1 147.55C1873.74 147.068 1873.27 146.678 1872.73 146.409C1872.2 146.14 1871.6 146 1871 146H1871ZM1871 151C1871.27 151 1871.52 150.895 1871.71 150.707C1871.89 150.52 1872 150.265 1872 150C1872 149.735 1871.89 149.48 1871.71 149.293C1871.52 149.105 1871.27 149 1871 149C1870.73 149 1870.48 149.105 1870.29 149.293C1870.11 149.48 1870 149.735 1870 150C1870 150.265 1870.11 150.52 1870.29 150.707C1870.48 150.895 1870.73 151 1871 151Z" fill="#2A2237"/>
</g>
<path d="M1131.5 150.5C1181.5 162.9 1269 152.333 1306.5 145.5" stroke="black" stroke-width="2" stroke-linecap="square"/>
<path d="M1132 140.5C1187.6 201.3 1271.17 154.833 1306 124" stroke="black" stroke-width="2" stroke-linecap="square"/>
<path d="M1810 171C1799.77 211.576 1776.4 247.24 1766 260" stroke="black" stroke-width="2" stroke-linecap="square"/>
<path d="M1883.5 174C1901.1 204 1927.17 189.833 1938 179" stroke="black" stroke-width="2" stroke-linecap="square"/>
<rect y="283" width="1990" height="52" fill="#2A2237"/>
<rect x="145" y="267" width="107" height="18" fill="#2A2237"/>
<path d="M213 184C213 183.448 213.448 183 214 183H251C251.552 183 252 183.448 252 184V269H213V184Z" fill="#2A2237"/>
<rect x="251" y="242" width="41" height="43" fill="#2A2237"/>
<path d="M96 257C96 255.895 96.8954 255 98 255H146C147.105 255 148 255.895 148 257V286H96V257Z" fill="#2A2237"/>
<path d="M458 118C458 117.448 458.448 117 459 117H501C501.552 117 502 117.448 502 118V285H458V118Z" fill="#2A2237"/>
<rect x="367" y="267" width="93" height="18" fill="#2A2237"/>
<rect x="291" y="252" width="79" height="33" fill="#2A2237"/>
<path d="M316 103C316 102.448 316.448 102 317 102H369C369.552 102 370 102.448 370 103V253H316V103Z" fill="#2A2237"/>
<rect x="366" y="122" width="96" height="15" fill="#2A2237"/>
<rect x="500" y="270" width="120" height="15" fill="#2A2237"/>
<path d="M657 173C657 172.448 657.448 172 658 172H739C740.105 172 741 172.895 741 174V285H657V173Z" fill="#2A2237"/>
<path d="M1078 121C1078 119.895 1078.9 119 1080 119H1130C1131.1 119 1132 119.895 1132 121V285H1078V121Z" fill="#2A2237"/>
<path d="M557 229C557 227.895 557.895 227 559 227H580C581.105 227 582 227.895 582 229V272H557V229Z" fill="#2A2237"/>
<path d="M620 264C620 262.895 620.895 262 622 262H658V285H620V264Z" fill="#2A2237"/>
<path d="M633 246C633 244.895 633.895 244 635 244H658V263H633V246Z" fill="#2A2237"/>
<path d="M511 239C511 237.895 511.895 237 513 237H536C537.105 237 538 237.895 538 239V272H511V239Z" fill="#2A2237"/>
<path d="M1442 107C1442 105.895 1442.9 105 1444 105H1477C1478.1 105 1479 105.895 1479 107V285H1442V107Z" fill="#2A2237"/>
<rect x="1785" y="266" width="205" height="19" fill="#2A2237"/>
<path d="M1809 157C1809 155.895 1809.9 155 1811 155H1882C1883.1 155 1884 155.895 1884 157V267H1809V157Z" fill="#2A2237"/>
<path d="M1474 225H1519C1519.55 225 1520 225.448 1520 226V285H1474V225Z" fill="#2A2237"/>
<path d="M1297 252C1297 250.895 1297.9 250 1299 250H1361C1362.1 250 1363 250.895 1363 252V285H1297V252Z" fill="#2A2237"/>
<path d="M1635 260C1635 258.895 1635.9 258 1637 258H1682V285H1635V260Z" fill="#2A2237"/>
<path d="M1643 227C1643 225.895 1643.9 225 1645 225H1682V259H1643V227Z" fill="#2A2237"/>
<rect x="1650" y="141" width="32" height="85" fill="#2A2237"/>
<path d="M1666 66C1666 64.8954 1666.9 64 1668 64H1680C1681.1 64 1682 64.8954 1682 66V142H1666V66Z" fill="#2A2237"/>
<path d="M1666.21 127L1682 141H1650L1666.21 127Z" fill="#2A2237"/>
<rect x="1519" y="267" width="60" height="18" fill="#2A2237"/>
<path d="M1578 257C1578 255.895 1578.9 255 1580 255H1600C1601.1 255 1602 255.895 1602 257V285H1578V257Z" fill="#2A2237"/>
<rect x="1601" y="266" width="44" height="19" fill="#2A2237"/>
<rect x="1737" y="260" width="28" height="25" fill="#2A2237"/>
<rect x="1764" y="273" width="22" height="12" fill="#2A2237"/>
<rect x="1704" y="271" width="34" height="14" fill="#2A2237"/>
<rect x="1681" y="260" width="24" height="25" fill="#2A2237"/>
<path d="M1748.93 238.996C1749.73 237.979 1751.27 237.979 1752.07 238.996L1767.44 258.513C1768.47 259.825 1767.54 261.75 1765.87 261.75H1735.13C1733.46 261.75 1732.53 259.825 1733.56 258.513L1748.93 238.996Z" fill="#2A2237"/>
<path d="M545.383 249.665C546.529 247.622 549.471 247.622 550.617 249.665L560.217 266.782C561.338 268.782 559.893 271.25 557.6 271.25H538.4C536.107 271.25 534.662 268.782 535.783 266.782L545.383 249.665Z" fill="#2A2237"/>
<path d="M257.402 226.5C258.557 224.5 261.443 224.5 262.598 226.5L270.392 240C271.547 242 270.104 244.5 267.794 244.5H252.206C249.896 244.5 248.453 242 249.608 240L257.402 226.5Z" fill="#2A2237"/>
<path d="M81.4019 260.5C82.5566 258.5 85.4434 258.5 86.5981 260.5L98.7224 281.5C99.8771 283.5 98.4338 286 96.1244 286H71.8756C69.5662 286 68.1229 283.5 69.2776 281.5L81.4019 260.5Z" fill="#2A2237"/>
<path d="M694 72C694 71.4477 694.448 71 695 71H740C740.552 71 741 71.4477 741 72V173H694V72Z" fill="#2A2237"/>
<path d="M949 175H987C988.105 175 989 175.895 989 177V285H949V175Z" fill="#2A2237"/>
<path d="M949 101H977C978.105 101 979 101.895 979 103V176H949V101Z" fill="#2A2237"/>
<rect x="719" y="266" width="96" height="19" fill="#2A2237"/>
<path d="M790 240C790 238.895 790.895 238 792 238H813C814.105 238 815 238.895 815 240V267H790V240Z" fill="#2A2237"/>
<rect x="829" y="263" width="121" height="22" fill="#2A2237"/>
<path d="M850 241C850 239.895 850.895 239 852 239H871C872.105 239 873 239.895 873 241V264H850V241Z" fill="#2A2237"/>
<path d="M926.875 243.266C927.673 242.153 929.327 242.153 930.125 243.266L943.983 262.584C944.932 263.908 943.986 265.75 942.358 265.75H914.642C913.014 265.75 912.068 263.908 913.017 262.584L926.875 243.266Z" fill="#2A2237"/>
<rect x="814" y="275" width="17" height="10" fill="#2A2237"/>
<path d="M973 263H1052C1053.1 263 1054 263.895 1054 265V285H973V263Z" fill="#2A2237"/>
<path d="M987 251H1001C1002.1 251 1003 251.895 1003 253V265H987V251Z" fill="#2A2237"/>
<path d="M1037.8 250.722C1038.59 249.466 1040.41 249.466 1041.2 250.722L1049.28 263.692C1050.12 265.024 1049.16 266.75 1047.59 266.75H1031.41C1029.84 266.75 1028.88 265.024 1029.72 263.692L1037.8 250.722Z" fill="#2A2237"/>
<rect x="1053" y="270" width="26" height="15" fill="#2A2237"/>
<rect x="1131" y="259" width="76" height="26" fill="#2A2237"/>
<path d="M1185 242H1205C1206.1 242 1207 242.895 1207 244V260H1185V242Z" fill="#2A2237"/>
<path d="M1185 242L1197.12 265.25H1172.88L1185 242Z" fill="#2A2237"/>
<rect x="1206" y="270" width="68" height="15" fill="#2A2237"/>
<path d="M1261 262C1261 260.895 1261.9 260 1263 260H1301V285H1261V262Z" fill="#2A2237"/>
<path d="M1306 92C1306 91.4477 1306.45 91 1307 91H1351C1351.55 91 1352 91.4477 1352 92V284H1306V92Z" fill="#2A2237"/>
<rect x="1362" y="262" width="81" height="23" fill="#2A2237"/>
<rect x="1916" y="247" width="23" height="20" fill="#2A2237"/>
<rect x="1930" y="228" width="20" height="20" fill="#2A2237"/>
<rect x="1938" y="174" width="17" height="55" fill="#2A2237"/>
<rect x="1938" y="225" width="52" height="42" fill="#2A2237"/>
<rect x="1965" y="186" width="36" height="40" fill="#2A2237"/>
<rect x="1952" y="206" width="15" height="22" fill="#2A2237"/>
<rect x="145" y="234" width="30" height="38" fill="#2A2237"/>
<path d="M398 257C398 255.895 398.895 255 400 255H409C410.105 255 411 255.895 411 257V269H398V257Z" fill="#2A2237"/>
<rect x="410" y="244" width="34" height="27" fill="#2A2237"/>
<path d="M1668 66.5C1619.6 144.1 1521.17 133.833 1478 119" stroke="black" stroke-width="2" stroke-linecap="square"/>
<rect y="186" width="19" height="99" fill="#2A2237"/>
<rect x="18" y="219" width="34" height="66" fill="#2A2237"/>
<path d="M404 136C403.244 158.681 381.019 170.117 370 173" stroke="#2A2237" stroke-width="2" stroke-linecap="square"/>
<path d="M391 136C420.381 170.579 447.909 160.333 458 150.888" stroke="#2A2237" stroke-width="2" stroke-linecap="square"/>
<path d="M502 122.5C588.8 139.3 666.5 112.833 694.5 97.5" stroke="#2A2237" stroke-width="2" stroke-linecap="square"/>
<path d="M815.5 245.5C862.3 223.1 925.167 145.5 950 109.5" stroke="#2A2237" stroke-width="2" stroke-linecap="square"/>
<path d="M695.71 80.0195C634.466 138.749 540.911 180.131 501.79 193.48" stroke="#2A2237" stroke-width="2" stroke-linecap="square"/>
<path d="M1352 157C1380.4 172.2 1423.83 143.667 1442 127.5" stroke="#2A2237" stroke-width="2" stroke-linecap="square"/>
<path d="M1658 152.5C1648.4 181.7 1562 218.333 1520 233" stroke="#2A2237" stroke-width="2" stroke-linecap="square"/>
<rect x="339" y="233" width="8" height="10" fill="#F6F4F9"/>
<rect x="355" y="225" width="8" height="10" fill="#F6F4F9"/>
<rect x="343" y="213" width="8" height="10" fill="#F6F4F9"/>
<rect x="38" y="225" width="8" height="10" fill="#F6F4F9"/>
<rect x="38" y="247" width="8" height="10" fill="#F6F4F9"/>
<rect x="21" y="225" width="8" height="10" fill="#F6F4F9"/>
<path d="M22 247H30V257H22V247Z" fill="#E5315C"/>
<rect x="38" y="266" width="8" height="10" fill="#F6F4F9"/>
<rect x="22" y="266" width="8" height="10" fill="#F6F4F9"/>
<rect x="3" y="195" width="8" height="10" fill="#E5315C"/>
<rect x="3" y="225" width="8" height="10" fill="#F6F4F9"/>
<rect x="3" y="247" width="8" height="10" fill="#F6F4F9"/>
<rect x="3" y="266" width="8" height="10" fill="#F6F4F9"/>
<rect x="355" y="199" width="8" height="10" fill="#F6F4F9"/>
<rect x="339" y="183" width="8" height="10" fill="#F6F4F9"/>
<rect x="358" y="176" width="8" height="10" fill="#F6F4F9"/>
<rect x="486" y="148" width="8" height="10" fill="#F6F4F9"/>
<rect x="486" y="168" width="8" height="10" fill="#F6F4F9"/>
<rect x="478" y="193" width="8" height="10" fill="#F6F4F9"/>
<rect x="696" y="186" width="8" height="10" fill="#F6F4F9"/>
<rect x="723" y="186" width="8" height="10" fill="#F6F4F9"/>
<rect x="723" y="220" width="8" height="10" fill="#F6F4F9"/>
<rect x="707" y="203" width="8" height="10" fill="#F6F4F9"/>
<path d="M1097 134C1097 132.895 1097.9 132 1099 132H1110C1111.1 132 1112 132.895 1112 134V220C1112 221.105 1111.1 222 1110 222H1099C1097.9 222 1097 221.105 1097 220V134Z" fill="#A395BA"/>
<path d="M1451.5 121C1451.5 120.172 1452.17 119.5 1453 119.5H1468C1468.83 119.5 1469.5 120.172 1469.5 121V223C1469.5 223.828 1468.83 224.5 1468 224.5H1453C1452.17 224.5 1451.5 223.828 1451.5 223V121Z" stroke="#E5315C"/>
<rect x="695" y="218" width="8" height="10" fill="#F6F4F9"/>
<rect x="952.5" y="215.5" width="7" height="9" stroke="#E5315C"/>
<rect x="961.5" y="230.5" width="7" height="9" stroke="#E5315C"/>
<path d="M961.5 198.5H968.5V207.5H961.5V198.5ZM963.5 163H970.5V172H963.5V163ZM976.5 182H983.5V191H976.5V182ZM976.5 216.5H983.5V225.5H976.5V216.5Z" stroke="#E5315C"/>
<rect x="952.5" y="182.5" width="7" height="9" stroke="#E5315C"/>
<rect x="708" y="235" width="8" height="10" fill="#F6F4F9"/>
<rect x="480" y="233" width="8" height="10" fill="#F6F4F9"/>
<rect x="474" y="252" width="8" height="10" fill="#F6F4F9"/>
<path d="M482 212C482 210.895 482.895 210 484 210H492C493.105 210 494 210.895 494 212V223C494 224.105 493.105 225 492 225H484C482.895 225 482 224.105 482 223V212Z" fill="#E5315C"/>
<path d="M668 183C668 181.895 668.895 181 670 181H686C687.105 181 688 181.895 688 183V242C688 243.105 687.105 244 686 244H670C668.895 244 668 243.105 668 242V183Z" fill="#E5315C"/>
<rect x="466" y="234" width="8" height="10" fill="#F6F4F9"/>
<rect x="466" y="122" width="8" height="10" fill="#F6F4F9"/>
<path d="M466 152C466 150.895 466.895 150 468 150C469.105 150 470 150.895 470 152V223C470 224.105 469.105 225 468 225C466.895 225 466 224.105 466 223V152Z" fill="#E5315C"/>
<rect x="347" y="160" width="8" height="10" fill="#F6F4F9"/>
<rect x="358" y="143" width="8" height="10" fill="#F6F4F9"/>
<rect x="339" y="138" width="8" height="10" fill="#F6F4F9"/>
<path d="M343 121C343 119.895 343.895 119 345 119H360C361.105 119 362 119.895 362 121V127C362 128.105 361.105 129 360 129H345C343.895 129 343 128.105 343 127V121Z" fill="#E5315C"/>
<path d="M722.5 87C722.5 86.1716 723.172 85.5 724 85.5H729C729.828 85.5 730.5 86.1716 730.5 87V164C730.5 164.828 729.828 165.5 729 165.5H724C723.172 165.5 722.5 164.828 722.5 164V87Z" stroke="#E5315C"/>
<path d="M1085 236C1085 234.895 1085.9 234 1087 234H1123C1124.1 234 1125 234.895 1125 236V247C1125 248.105 1124.1 249 1123 249H1087C1085.9 249 1085 248.105 1085 247V236Z" fill="#E5315C"/>
<path d="M1334 204C1334 202.895 1334.9 202 1336 202H1342C1343.1 202 1344 202.895 1344 204V225C1344 226.105 1343.1 227 1342 227H1336C1334.9 227 1334 226.105 1334 225V204Z" fill="#E5315C"/>
<path d="M1334 110C1334 108.895 1334.9 108 1336 108H1342C1343.1 108 1344 108.895 1344 110V131C1344 132.105 1343.1 133 1342 133H1336C1334.9 133 1334 132.105 1334 131V110Z" fill="#A395BA"/>
<path d="M1314 157C1314 155.895 1314.9 155 1316 155H1322C1323.1 155 1324 155.895 1324 157V178C1324 179.105 1323.1 180 1322 180H1316C1314.9 180 1314 179.105 1314 178V157Z" fill="#A395BA"/>
<path d="M1334 157C1334 155.895 1334.9 155 1336 155H1342C1343.1 155 1344 155.895 1344 157V178C1344 179.105 1343.1 180 1342 180H1336C1334.9 180 1334 179.105 1334 178V157Z" fill="#E5315C"/>
<path d="M1314 110C1314 108.895 1314.9 108 1316 108H1322C1323.1 108 1324 108.895 1324 110V131C1324 132.105 1323.1 133 1322 133H1316C1314.9 133 1314 132.105 1314 131V110Z" fill="#E5315C"/>
<path d="M1314 204C1314 202.895 1314.9 202 1316 202H1322C1323.1 202 1324 202.895 1324 204V225C1324 226.105 1323.1 227 1322 227H1316C1314.9 227 1314 226.105 1314 225V204Z" fill="#E5315C"/>
<path d="M1660 157C1660 155.895 1660.9 155 1662 155H1670C1671.1 155 1672 155.895 1672 157V216C1672 217.105 1671.1 218 1670 218H1662C1660.9 218 1660 217.105 1660 216V157Z" fill="#E5315C"/>
<rect x="1859" y="186" width="8" height="10" fill="#F6F4F9"/>
<rect x="1845" y="196" width="8" height="10" fill="#F6F4F9"/>
<rect x="1817" y="197" width="8" height="10" fill="#F6F4F9"/>
<rect x="1859" y="206" width="8" height="10" fill="#E5315C"/>
<rect x="1975" y="233" width="8" height="10" fill="#E5315C"/>
<rect x="1975" y="193" width="8" height="10" fill="#E5315C"/>
<rect x="1943" y="233" width="8" height="10" fill="#E5315C"/>
<rect x="1831" y="207" width="8" height="10" fill="#F6F4F9"/>
<rect x="1845" y="216" width="8" height="10" fill="#F6F4F9"/>
<rect x="1817" y="217" width="8" height="10" fill="#F6F4F9"/>
<rect x="1859" y="226" width="8" height="10" fill="#F6F4F9"/>
<rect x="1975" y="252" width="8" height="10" fill="#F6F4F9"/>
<rect x="1943" y="252" width="8" height="10" fill="#F6F4F9"/>
<rect x="1957" y="217" width="8" height="10" fill="#F6F4F9"/>
<rect x="1975" y="217" width="8" height="10" fill="#F6F4F9"/>
<rect x="1831" y="227" width="8" height="10" fill="#E5315C"/>
<rect x="1845" y="236" width="8" height="10" fill="#F6F4F9"/>
<rect x="1817" y="237" width="8" height="10" fill="#F6F4F9"/>
<rect x="1859" y="246" width="8" height="10" fill="#F6F4F9"/>
<rect x="1831" y="247" width="8" height="10" fill="#F6F4F9"/>
<rect x="1845" y="176" width="8" height="10" fill="#F6F4F9"/>
<rect x="1831" y="186" width="8" height="10" fill="#E5315C"/>
<rect x="1817" y="176" width="8" height="10" fill="#F6F4F9"/>
</g>
<defs>
<filter id="filter0_f_77_41" x="-1.5" y="8.5" width="1993" height="190.168" filterUnits="userSpaceOnUse" color-interpolation-filters="sRGB">
<feFlood flood-opacity="0" result="BackgroundImageFix"/>
<feBlend mode="normal" in="SourceGraphic" in2="BackgroundImageFix" result="shape"/>
<feGaussianBlur stdDeviation="0.5" result="effect1_foregroundBlur_77_41"/>
</filter>
<filter id="filter1_f_77_41" x="15.5" y="95" width="1976.5" height="192.5" filterUnits="userSpaceOnUse" color-interpolation-filters="sRGB">
<feFlood flood-opacity="0" result="BackgroundImageFix"/>
<feBlend mode="normal" in="SourceGraphic" in2="BackgroundImageFix" result="shape"/>
<feGaussianBlur stdDeviation="0.5" result="effect1_foregroundBlur_77_41"/>
</filter>
<clipPath id="clip0_77_41">
<rect width="1990" height="335" fill="white"/>
</clipPath>
<clipPath id="clip1_77_41">
<rect width="16" height="16" fill="white" transform="translate(347 85)"/>
</clipPath>
<clipPath id="clip2_77_41">
<rect width="16" height="16" fill="white" transform="translate(725 55)"/>
</clipPath>
<clipPath id="clip3_77_41">
<rect width="16" height="16" fill="white" transform="translate(965 85)"/>
</clipPath>
<clipPath id="clip4_77_41">
<rect width="16" height="16" fill="white" transform="translate(1334 73)"/>
</clipPath>
<clipPath id="clip5_77_41">
<rect width="16" height="16" fill="white" transform="translate(1666 48)"/>
</clipPath>
<clipPath id="clip6_77_41">
<rect width="16" height="16" fill="white" transform="translate(1863 137)"/>
</clipPath>
</defs>
</svg>
