<svg width="331" height="97" viewBox="0 0 331 97" fill="none" xmlns="http://www.w3.org/2000/svg">
<path d="M1 23.0536V11.1786H131.582" stroke="#E5315C" stroke-width="2"/>
<path d="M330 73.9464V85.8214L277.428 85.8214" stroke="#E5315C" stroke-width="2"/>
<path d="M321.895 78V19H165.446H8.99738V78H321.895Z" fill="#E5315C"/>
<path d="M23.0466 95.9999L46.7888 95.9999L89.1856 96L95.9691 85.8214L1.00012 85.8214L1.00021 95.9999L23.0466 95.9999Z" fill="#E5315C"/>
<path d="M270.644 85.8214L109.536 85.8214L95.9691 85.8214M95.9691 85.8214L89.1856 96L46.7888 95.9999L23.0466 95.9999L1.00021 95.9999L1.00012 85.8214M95.9691 85.8214L1.00012 85.8214M1.00012 85.8214L1.00021 43.4107M1.00021 33.2321L1.00021 26.4464" stroke="#E5315C" stroke-width="2"/>
<path d="M302.866 1L279.124 1L241.814 1L235.031 11.1786L330 11.1786V1L302.866 1Z" fill="#E5315C"/>
<path d="M138.366 11.1786L216.377 11.1786L235.031 11.1786M235.031 11.1786L241.814 1L279.124 1L302.866 1L330 1V11.1786M235.031 11.1786L330 11.1786M330 11.1786V53.5893" stroke="#E5315C" stroke-width="2"/>
<path d="M330 63.7678V70.5535" stroke="#E5315C" stroke-width="2"/>
</svg>
